<svg width="40" height="40" viewBox="0 0 40 40" fill="none" xmlns="http://www.w3.org/2000/svg">
<g clip-path="url(#clip0)">
<path d="M20.0001 -8.31524e-05C14.5684 -8.31524e-05 13.8873 0.0229413 11.754 0.120274C9.62528 0.217368 8.1714 0.55549 6.89923 1.04985C5.58405 1.56097 4.46871 2.24484 3.35681 3.3567C2.24494 4.46856 1.56107 5.58399 1.04997 6.89917C0.555577 8.17132 0.217486 9.6252 0.120326 11.754C0.0230108 13.8872 0 14.5683 0 20C0 25.4316 0.0230108 26.1127 0.120326 28.246C0.217486 30.3747 0.555577 31.8286 1.04997 33.1007C1.56107 34.4159 2.24494 35.5313 3.35681 36.6432C4.46871 37.7551 5.58405 38.439 6.89923 38.9501C8.1714 39.4444 9.62528 39.7825 11.754 39.8796C13.8873 39.977 14.5684 40 20.0001 40C25.4317 40 26.1128 39.977 28.246 39.8796C30.3748 39.7825 31.8287 39.4444 33.1008 38.9501C34.416 38.439 35.5314 37.7551 36.6433 36.6432C37.7552 35.5313 38.439 34.4159 38.9501 33.1007C39.4445 31.8286 39.7826 30.3747 39.8797 28.246C39.9771 26.1127 40.0001 25.4316 40.0001 20C40.0001 14.5683 39.9771 13.8872 39.8797 11.754C39.7826 9.6252 39.4445 8.17132 38.9501 6.89917C38.439 5.58399 37.7552 4.46856 36.6433 3.3567C35.5314 2.24484 34.416 1.56097 33.1008 1.04985C31.8287 0.55549 30.3748 0.217368 28.246 0.120274C26.1128 0.0229413 25.4317 -8.31524e-05 20.0001 -8.31524e-05ZM20.0001 3.60352C25.3403 3.60352 25.9728 3.62393 28.0818 3.72015C30.0318 3.80906 31.0907 4.13488 31.7955 4.40878C32.729 4.77159 33.3953 5.20498 34.0951 5.90481C34.795 6.60471 35.2284 7.27096 35.5912 8.20451C35.8651 8.90926 36.1909 9.96824 36.2798 11.9182C36.3761 14.0272 36.3965 14.6597 36.3965 20C36.3965 25.3402 36.3761 25.9728 36.2798 28.0817C36.1909 30.0317 35.8651 31.0907 35.5912 31.7954C35.2284 32.729 34.795 33.3952 34.0951 34.095C33.3953 34.7949 32.729 35.2283 31.7955 35.5911C31.0907 35.865 30.0318 36.1908 28.0818 36.2798C25.9732 36.376 25.3407 36.3964 20.0001 36.3964C14.6594 36.3964 14.027 36.376 11.9183 36.2798C9.96832 36.1908 8.90934 35.865 8.20459 35.5911C7.27103 35.2283 6.6048 34.7949 5.90496 34.095C5.20512 33.3952 4.77167 32.729 4.40886 31.7954C4.13496 31.0907 3.80919 30.0317 3.72021 28.0817C3.62398 25.9728 3.6036 25.3402 3.6036 20C3.6036 14.6597 3.62398 14.0272 3.72021 11.9182C3.80919 9.96824 4.13496 8.90926 4.40886 8.20451C4.77167 7.27096 5.20509 6.60471 5.90493 5.90489C6.6048 5.20498 7.27103 4.77159 8.20459 4.40878C8.90934 4.13488 9.96832 3.80906 11.9183 3.72015C14.0272 3.62393 14.6598 3.60352 20.0001 3.60352Z" fill="white"/>
<path d="M20.0008 26.6667C16.3188 26.6667 13.3341 23.6819 13.3341 20C13.3341 16.3181 16.3188 13.3333 20.0008 13.3333C23.6827 13.3333 26.6674 16.3181 26.6674 20C26.6674 23.6819 23.6827 26.6667 20.0008 26.6667V26.6667ZM20.0008 9.72969C14.3286 9.72969 9.73047 14.3278 9.73047 20C9.73047 25.6721 14.3286 30.2703 20.0008 30.2703C25.6729 30.2703 30.2711 25.6721 30.2711 20C30.2711 14.3278 25.6729 9.72969 20.0008 9.72969Z" fill="white"/>
<path d="M33.0774 9.3239C33.0774 10.6494 32.0028 11.7239 30.6773 11.7239C29.3519 11.7239 28.2773 10.6494 28.2773 9.3239C28.2773 7.9984 29.3519 6.92385 30.6773 6.92385C32.0028 6.92385 33.0774 7.9984 33.0774 9.3239" fill="white"/>
</g>
<defs>
<clipPath id="clip0">
<rect width="40" height="40" fill="white"/>
</clipPath>
</defs>
</svg>
