<svg width="168" height="22" viewBox="0 0 168 22" fill="none" xmlns="http://www.w3.org/2000/svg">
<path d="M10.0703 5.60156H13.3125C13.2656 2.75 10.9219 0.781249 7.35938 0.781249C3.85156 0.781249 1.28125 2.71875 1.29688 5.625C1.28906 7.98437 2.95312 9.33594 5.65625 9.98437L7.39844 10.4219C9.14063 10.8437 10.1094 11.3437 10.1172 12.4219C10.1094 13.5937 9 14.3906 7.28125 14.3906C5.52344 14.3906 4.25781 13.5781 4.14844 11.9766H0.875C0.960938 15.4375 3.4375 17.2266 7.32031 17.2266C11.2266 17.2266 13.5234 15.3594 13.5312 12.4297C13.5234 9.76562 11.5156 8.35156 8.73438 7.72656L7.29688 7.38281C5.90625 7.0625 4.74219 6.54687 4.76563 5.39844C4.76563 4.36719 5.67969 3.60937 7.33594 3.60937C8.95313 3.60937 9.94531 4.34375 10.0703 5.60156ZM21.2129 17.2344C24.1816 17.2344 26.1816 15.7891 26.6504 13.5625L23.5723 13.3594C23.2363 14.2734 22.377 14.75 21.2676 14.75C19.6035 14.75 18.5488 13.6484 18.5488 11.8594V11.8516H26.7207V10.9375C26.7207 6.85938 24.252 4.84375 21.0801 4.84375C17.5488 4.84375 15.2598 7.35156 15.2598 11.0547C15.2598 14.8594 17.5176 17.2344 21.2129 17.2344ZM18.5488 9.78906C18.6191 8.42187 19.6582 7.32812 21.1348 7.32812C22.5801 7.32812 23.5801 8.35937 23.5879 9.78906H18.5488ZM34.3145 17.2344C37.5098 17.2344 39.5176 15.3594 39.6738 12.6016H36.5332C36.3379 13.8828 35.4941 14.6016 34.3535 14.6016C32.7988 14.6016 31.791 13.2969 31.791 11C31.791 8.73437 32.8066 7.4375 34.3535 7.4375C35.5723 7.4375 36.3535 8.24219 36.5332 9.4375H39.6738C39.5332 6.66406 37.4316 4.84375 34.2988 4.84375C30.6582 4.84375 28.4082 7.36719 28.4082 11.0469C28.4082 14.6953 30.6191 17.2344 34.3145 17.2344ZM47.2266 17.2344C50.8672 17.2344 53.1328 14.7422 53.1328 11.0469C53.1328 7.32812 50.8672 4.84375 47.2266 4.84375C43.5859 4.84375 41.3203 7.32812 41.3203 11.0469C41.3203 14.7422 43.5859 17.2344 47.2266 17.2344ZM47.2422 14.6562C45.5625 14.6562 44.7031 13.1172 44.7031 11.0234C44.7031 8.92969 45.5625 7.38281 47.2422 7.38281C48.8906 7.38281 49.75 8.92969 49.75 11.0234C49.75 13.1172 48.8906 14.6562 47.2422 14.6562ZM58.625 10.0625C58.6328 8.51563 59.5547 7.60937 60.8984 7.60937C62.2344 7.60937 63.0391 8.48437 63.0313 9.95312V17H66.3594V9.35937C66.3594 6.5625 64.7188 4.84375 62.2188 4.84375C60.4375 4.84375 59.1484 5.71875 58.6094 7.11719H58.4688V5H55.2969V17H58.625V10.0625ZM73.4043 17.1953C75.3418 17.1953 76.3496 16.0781 76.8105 15.0781H76.9512V17H80.2324V1H76.9121V7.01562H76.8105C76.3652 6.03906 75.4043 4.84375 73.3965 4.84375C70.7637 4.84375 68.5371 6.89062 68.5371 11.0156C68.5371 15.0312 70.6699 17.1953 73.4043 17.1953ZM74.459 14.5469C72.8262 14.5469 71.9355 13.0937 71.9355 11C71.9355 8.92188 72.8105 7.49219 74.459 7.49219C76.0762 7.49219 76.9824 8.85938 76.9824 11C76.9824 13.1406 76.0605 14.5469 74.459 14.5469ZM96.8027 5.60156H100.045C99.998 2.75 97.6543 0.781249 94.0918 0.781249C90.584 0.781249 88.0137 2.71875 88.0293 5.625C88.0215 7.98437 89.6855 9.33594 92.3887 9.98437L94.1309 10.4219C95.873 10.8437 96.8418 11.3437 96.8496 12.4219C96.8418 13.5937 95.7324 14.3906 94.0137 14.3906C92.2559 14.3906 90.9902 13.5781 90.8809 11.9766H87.6074C87.6934 15.4375 90.1699 17.2266 94.0527 17.2266C97.959 17.2266 100.256 15.3594 100.264 12.4297C100.256 9.76562 98.248 8.35156 95.4668 7.72656L94.0293 7.38281C92.6387 7.0625 91.4746 6.54687 91.498 5.39844C91.498 4.36719 92.4121 3.60937 94.0684 3.60937C95.6855 3.60937 96.6777 4.34375 96.8027 5.60156ZM110.172 11.8906C110.18 13.5 109.078 14.3437 107.883 14.3437C106.625 14.3437 105.813 13.4609 105.805 12.0469V5H102.477V12.6406C102.484 15.4453 104.125 17.1563 106.539 17.1563C108.344 17.1563 109.641 16.2266 110.18 14.8203H110.305V17H113.5V5H110.172V11.8906ZM119.49 10.0625C119.498 8.51563 120.42 7.60937 121.764 7.60937C123.1 7.60937 123.904 8.48437 123.896 9.95312V17H127.225V9.35937C127.225 6.5625 125.584 4.84375 123.084 4.84375C121.303 4.84375 120.014 5.71875 119.475 7.11719H119.334V5H116.162V17H119.49V10.0625ZM134.27 17.1953C136.207 17.1953 137.215 16.0781 137.676 15.0781H137.816V17H141.098V1H137.777V7.01562H137.676C137.23 6.03906 136.27 4.84375 134.262 4.84375C131.629 4.84375 129.402 6.89062 129.402 11.0156C129.402 15.0312 131.535 17.1953 134.27 17.1953ZM135.324 14.5469C133.691 14.5469 132.801 13.0937 132.801 11C132.801 8.92188 133.676 7.49219 135.324 7.49219C136.941 7.49219 137.848 8.85938 137.848 11C137.848 13.1406 136.926 14.5469 135.324 14.5469ZM147.256 17.2266C149.029 17.2266 150.178 16.4531 150.764 15.3359H150.857V17H154.014V8.90625C154.014 6.04687 151.592 4.84375 148.92 4.84375C146.045 4.84375 144.154 6.21875 143.693 8.40625L146.771 8.65625C146.998 7.85937 147.709 7.27344 148.904 7.27344C150.037 7.27344 150.686 7.84375 150.686 8.82812V8.875C150.686 9.64844 149.865 9.75 147.779 9.95312C145.404 10.1719 143.271 10.9687 143.271 13.6484C143.271 16.0234 144.967 17.2266 147.256 17.2266ZM148.209 14.9297C147.186 14.9297 146.451 14.4531 146.451 13.5391C146.451 12.6016 147.225 12.1406 148.396 11.9766C149.123 11.875 150.311 11.7031 150.709 11.4375V12.7109C150.709 13.9687 149.67 14.9297 148.209 14.9297ZM158.221 21.4766C160.697 21.4766 162.018 20.2188 162.689 18.2969L167.354 5.01563L163.83 5L161.322 13.8125H161.197L158.713 5H155.213L159.518 17.3438L159.322 17.8516C158.854 18.9375 158.049 19.0156 156.877 18.6484L156.127 21.1406C156.604 21.3359 157.377 21.4766 158.221 21.4766Z" fill="white"/>
</svg>
