<svg width="40" height="40" viewBox="0 0 40 40" fill="none" xmlns="http://www.w3.org/2000/svg">
<g clip-path="url(#clip0)">
<path fill-rule="evenodd" clip-rule="evenodd" d="M16.0114 25.9091V14.0909L26.2045 20.0002L16.0114 25.9091ZM38.685 10.3723C38.2365 8.65119 36.9149 7.2959 35.237 6.83594C32.1957 6 20 6 20 6C20 6 7.8043 6 4.76297 6.83594C3.08508 7.2959 1.76351 8.65119 1.31501 10.3723C0.5 13.4916 0.5 20 0.5 20C0.5 20 0.5 26.5082 1.31501 29.6277C1.76351 31.3488 3.08508 32.7041 4.76297 33.1643C7.8043 34 20 34 20 34C20 34 32.1957 34 35.237 33.1643C36.9149 32.7041 38.2365 31.3488 38.685 29.6277C39.5 26.5082 39.5 20 39.5 20C39.5 20 39.5 13.4916 38.685 10.3723Z" fill="#FFFFFE"/>
</g>
<defs>
<clipPath id="clip0">
<rect x="0.5" y="6" width="39" height="28" fill="white"/>
</clipPath>
</defs>
</svg>
